<svg version="1.1" xmlns="http://www.w3.org/2000/svg" xmlns:xlink="http://www.w3.org/1999/xlink" viewBox="0 0 172 172"><g fill="none" fill-rule="nonzero" stroke="none" stroke-width="1" stroke-linecap="butt" stroke-linejoin="miter" stroke-miterlimit="10" stroke-dasharray="" stroke-dashoffset="0" font-family="none" font-weight="none" font-size="none" text-anchor="none" style="mix-blend-mode: normal"><path d="M0,172v-172h172v172z" fill="none"></path><path d="M86,172c-47.49649,0 -86,-38.50351 -86,-86v0c0,-47.49649 38.50351,-86 86,-86v0c47.49649,0 86,38.50351 86,86v0c0,47.49649 -38.50351,86 -86,86z" fill="#1a75bc"></path><g fill="#ffffff"><path d="M86,28.66667c-10.05717,0 -18.43153,7.51477 -19.83711,17.2h-19.61315c-0.24412,-0.04177 -0.49139,-0.06238 -0.73906,-0.06159c-0.214,0.00462 -0.42735,0.0252 -0.63828,0.06159h-9.33906c-1.55073,-0.02193 -2.99315,0.79281 -3.77492,2.13225c-0.78177,1.33944 -0.78177,2.99605 0,4.33549c0.78177,1.33944 2.22418,2.15418 3.77492,2.13225h6.13086l7.21706,74.61732c0.77709,8.04567 7.61253,14.24935 15.69388,14.24935h42.24414c8.08177,0 14.9171,-6.20299 15.69388,-14.24935l7.22266,-74.61732h6.13086c1.55073,0.02193 2.99315,-0.79281 3.77492,-2.13225c0.78177,-1.33944 0.78177,-2.99605 0,-4.33549c-0.78177,-1.33944 -2.22418,-2.15418 -3.77492,-2.13225h-9.33346c-0.45613,-0.074 -0.92121,-0.074 -1.37734,0h-19.61875c-1.40558,-9.68523 -9.77994,-17.2 -19.83711,-17.2zM86,37.26667c5.38691,0 9.8062,3.63539 11.06914,8.6h-22.13828c1.26294,-4.96461 5.68223,-8.6 11.06914,-8.6zM50.59779,54.46667h70.79883l-7.14427,73.78867c-0.35842,3.7127 -3.40418,6.478 -7.13307,6.478h-42.24414c-3.72358,0 -6.77497,-2.77033 -7.13307,-6.478zM75.89948,68.73841c-2.37263,0.03707 -4.26685,1.98892 -4.23281,4.36159v43c-0.02193,1.55073 0.79281,2.99315 2.13225,3.77492c1.33944,0.78177 2.99605,0.78177 4.33549,0c1.33944,-0.78177 2.15418,-2.22418 2.13225,-3.77492v-43c0.01668,-1.16277 -0.43826,-2.28273 -1.26108,-3.1045c-0.82282,-0.82176 -1.94336,-1.27526 -3.10611,-1.25709zM95.96614,68.73841c-2.37263,0.03707 -4.26685,1.98892 -4.23281,4.36159v43c-0.02193,1.55073 0.79281,2.99315 2.13225,3.77492c1.33944,0.78177 2.99605,0.78177 4.33549,0c1.33944,-0.78177 2.15418,-2.22418 2.13225,-3.77492v-43c0.01668,-1.16277 -0.43826,-2.28273 -1.26108,-3.1045c-0.82282,-0.82176 -1.94336,-1.27526 -3.10611,-1.25709z"></path></g></g></svg>